<svg xmlns="http://www.w3.org/2000/svg" version="1.1" xmlns:xlink="http://www.w3.org/1999/xlink" xmlns:svgjs="http://svgjs.dev/svgjs" width="128" height="128" viewBox="0 0 128 128"><g transform="matrix(0.8046875,0,0,0.8046875,12.333870967741937,12.333870967741937)"><svg viewBox="0 0 155 155" data-background-color="#0c1d36" preserveAspectRatio="xMidYMid meet" height="128" width="128" xmlns="http://www.w3.org/2000/svg" xmlns:xlink="http://www.w3.org/1999/xlink"><g id="tight-bounds" transform="matrix(1,0,0,1,0.25,0.25)"><svg viewBox="0 0 154.5 154.5" height="154.5" width="154.5"><g><svg></svg></g><g><svg viewBox="0 0 154.5 154.5" height="154.5" width="154.5"><g transform="matrix(1,0,0,1,47.746370999999996,58.533635353125)"><svg viewBox="0 0 59.007258 37.43272929375" height="37.43272929375" width="59.007258"><g><svg viewBox="0 0 59.007258 37.43272929375" height="37.43272929375" width="59.007258"><g><svg viewBox="0 0 59.007258 37.43272929375" height="37.43272929375" width="59.007258"><g id="textblocktransform"><svg viewBox="0 0 59.007258 37.43272929375" height="37.43272929375" width="59.007258" id="textblock"><g><svg viewBox="0 0 59.007258 37.43272929375" height="37.43272929375" width="59.007258"><g transform="matrix(1,0,0,1,0,0)"><svg width="59.007258" viewBox="7.08 -34.69 54.690000000000005 34.69" height="37.43272929375" data-palette-color="#f9cc0b"><path d="M7.08 0L7.08-34.69 11.23-34.69 11.23 0 7.08 0ZM11.82-17.8L26.51-34.69 31.71-34.69 17.04-18.14 32.64 0 27.29 0 11.82-17.8ZM61.77-31.03L45.82-31.03 45.82-19.7 60.3-19.7 60.3-16.04 45.82-16.04 45.82 0 41.67 0 41.67-34.69 61.77-34.69 61.77-31.03Z" opacity="1" transform="matrix(1,0,0,1,0,0)" fill="#f9cc0b" class="wordmark-text-0" data-fill-palette-color="primary" id="text-0"></path></svg></g></svg></g></svg></g></svg></g></svg></g></svg></g><path d="M47.746 52.534L47.746 1 106.754 1 106.754 52.534 103.378 52.534 103.378 4.376 51.122 4.376 51.122 52.534 47.746 52.534M47.746 101.966L47.746 153.5 106.754 153.5 106.754 101.966 103.378 101.966 103.378 150.124 51.122 150.124 51.122 101.966 47.746 101.966" fill="#f9cc0b" stroke="transparent" data-fill-palette-color="primary"></path></svg></g><defs></defs></svg><rect width="154.5" height="154.5" fill="none" stroke="none" visibility="hidden"></rect></g></svg></g></svg>