<svg xmlns="http://www.w3.org/2000/svg" version="1.1" xmlns:xlink="http://www.w3.org/1999/xlink" xmlns:svgjs="http://svgjs.dev/svgjs" width="2000" height="1500" viewBox="0 0 2000 1500"><rect width="2000" height="1500" fill="#0c1d36"></rect><g transform="matrix(0.75,0,0,0.75,249.090909090909,282.7536437246963)"><svg viewBox="0 0 396 247" data-background-color="#0c1d36" preserveAspectRatio="xMidYMid meet" height="1247" width="2000" xmlns="http://www.w3.org/2000/svg" xmlns:xlink="http://www.w3.org/1999/xlink"><g id="tight-bounds" transform="matrix(1,0,0,1,0.2400000000000091,-0.09999999999999432)"><svg viewBox="0 0 395.52 247.2" height="247.2" width="395.52"><g><svg></svg></g><g><svg viewBox="0 0 395.52 247.2" height="247.2" width="395.52"><g transform="matrix(1,0,0,1,75.54432,100.10889757503001)"><svg viewBox="0 0 244.43135999999998 46.98220484993997" height="46.98220484993997" width="244.43135999999998"><g><svg viewBox="0 0 244.43135999999998 46.98220484993997" height="46.98220484993997" width="244.43135999999998"><g><svg viewBox="0 0 244.43136 46.982204849939976" height="46.98220484993997" width="244.43135999999998"><g><svg viewBox="0 0 244.43136 46.982204849939976" height="46.982204849939976" width="244.43136"><g id="textblocktransform"><svg viewBox="0 0 244.43136 46.982204849939976" height="46.982204849939976" width="244.43136" id="textblock"><g><svg viewBox="0 0 244.43136 46.982204849939976" height="46.982204849939976" width="244.43136"><g transform="matrix(1,0,0,1,0,0)"><svg width="244.43136" viewBox="7.079999923706055 -34.689998626708984 183.02000427246094 35.18000030517578" height="46.982204849939976" data-palette-color="#f9cc0b"><path d="M7.08 0L7.08-34.69 11.23-34.69 11.23 0 7.08 0ZM11.82-17.8L26.51-34.69 31.71-34.69 17.04-18.14 32.64 0 27.29 0 11.82-17.8ZM38.99 0L38.99-5.13 44.11-5.13 44.11 0 38.99 0ZM89.35-31.03L73.41-31.03 73.41-19.7 87.88-19.7 87.88-16.04 73.41-16.04 73.41 0 69.26 0 69.26-34.69 89.35-34.69 89.35-31.03ZM112.98-4.98L112.98-24.12 116.98-24.12 116.98 0 114.17 0 113.32-2.03Q108.71 0.49 104.8 0.49L104.8 0.49Q102.82 0.49 101.36-0.13 99.89-0.76 99.09-1.68 98.28-2.61 97.79-4.04 97.3-5.47 97.17-6.76 97.04-8.06 97.04-9.72L97.04-9.72 97.04-24.12 101.04-24.12 101.04-9.42Q101.04-3.1 106.53-3.1L106.53-3.1Q109.37-3.1 112.98-4.98L112.98-4.98ZM135.41-20.9L135.41-20.9Q133.31-20.9 129.77-19.04L129.77-19.04 129.77 0 125.77 0 125.77-24.12 128.58-24.12 129.43-22.12Q133.8-24.58 137-24.58L137-24.58Q140.69-24.58 142.79-21.9L142.79-21.9Q147.57-24.56 151.35-24.56L151.35-24.56Q153.19-24.56 154.58-24.06 155.97-23.56 156.84-22.69 157.7-21.83 158.25-20.52 158.8-19.21 159.01-17.76 159.22-16.31 159.22-14.48L159.22-14.48 159.22 0 155.21 0 155.21-14.75Q155.21-15.19 155.19-15.56 155.16-15.94 155.07-16.61 154.97-17.29 154.77-17.81 154.58-18.33 154.2-18.95 153.82-19.56 153.28-19.96 152.75-20.36 151.92-20.63 151.09-20.9 150.06-20.9L150.06-20.9Q147.81-20.9 144.13-18.99L144.13-18.99Q144.47-17.55 144.47-14.31L144.47-14.31 144.47 0 140.47 0 140.47-14.84Q140.47-15.48 140.42-16.05 140.37-16.63 140.08-17.58 139.78-18.53 139.29-19.2 138.81-19.87 137.79-20.39 136.78-20.9 135.41-20.9ZM178.62-24.58L178.62-24.58Q183.63-24.58 186.86-21.39 190.1-18.19 190.1-12.55L190.1-12.55Q190.1-6.57 186.79-3.04 183.48 0.49 178.23 0.49L178.23 0.49Q173.23 0.49 170.05-2.82 166.88-6.13 166.88-11.79L166.88-11.79Q166.88-17.63 170.11-21.11 173.35-24.58 178.62-24.58ZM178.28-21.17L178.28-21.17Q175.28-21.17 173.03-18.85 170.79-16.53 170.79-12.48L170.79-12.48Q170.79-8.45 172.98-5.69 175.18-2.93 178.67-2.93L178.67-2.93Q181.89-2.93 184.04-5.37 186.19-7.81 186.19-11.74L186.19-11.74Q186.19-13.99 185.5-15.82 184.8-17.65 183.66-18.8 182.53-19.95 181.14-20.56 179.75-21.17 178.28-21.17Z" opacity="1" transform="matrix(1,0,0,1,0,0)" fill="#f9cc0b" class="wordmark-text-0" data-fill-palette-color="primary" id="text-0"></path></svg></g></svg></g></svg></g></svg></g></svg></g></svg></g></svg></g><path d="M188.898 94.109L188.898 33.038 7.774 33.038 7.774 214.162 188.898 214.162 188.898 153.091 184.661 153.091 184.661 209.925 12.011 209.925 12.011 37.275 184.661 37.275 184.661 94.109Z" fill="#f9cc0b" stroke="transparent" data-fill-palette-color="primary"></path></svg></g><defs></defs></svg><rect width="395.52" height="247.2" fill="none" stroke="none" visibility="hidden"></rect></g></svg></g></svg>